<svg width="20" height="20" viewBox="0 0 20 20" fill="none" xmlns="http://www.w3.org/2000/svg">
<g id="Frame">
<path id="Vector" d="M4.18896 12.5V14.1666C4.18896 15.0453 4.86887 15.7651 5.73125 15.8287L5.85563 15.8333H8.35563V17.5H5.85563C4.01468 17.5 2.5223 16.0075 2.5223 14.1666V12.5H4.18896ZM15.0223 8.33329L18.689 17.5H16.8931L15.8923 15H12.484L11.4848 17.5H9.6898L13.3556 8.33329H15.0223ZM14.189 10.7376L13.1498 13.3333H15.2265L14.189 10.7376ZM6.68896 1.66663V3.33329H10.0223V9.16663H6.68896V11.6666H5.0223V9.16663H1.68896V3.33329H5.0223V1.66663H6.68896ZM14.189 2.49996C16.0299 2.49996 17.5223 3.99234 17.5223 5.83329V7.49996H15.8556V5.83329C15.8556 4.91282 15.1095 4.16663 14.189 4.16663H11.689V2.49996H14.189ZM5.0223 4.99996H3.35563V7.49996H5.0223V4.99996ZM8.35563 4.99996H6.68896V7.49996H8.35563V4.99996Z" fill="white"/>
</g>
</svg>
